<svg xmlns="http://www.w3.org/2000/svg" xmlns:xlink="http://www.w3.org/1999/xlink" width="238.005126953125" height="88" viewBox="0 0 238.005126953125 88" fill="none">
<path d="M184.671 64.6798L192.209 52.7998L200.218 64.6798L215.293 64.6798L223.302 52.7998L229.897 64.6798L229.897 87.9998L184.671 87.9998L0 87.9998L7.06651 77.8798L39.1013 77.8798L52.7633 64.6798L184.671 64.6798Z"   fill="#222831" >
</path>
<rect x="199.74658203125" y="70.39990234375" width="2.82659912109375" height="8.79998779296875"   fill="#00ADB5" >
</rect>
<rect x="214.82177734375" y="70.39990234375" width="2.82659912109375" height="8.79998779296875"   fill="#00ADB5" >
</rect>
<path d="M81.0293 87.9993L68.3096 78.3193L73.0206 78.3193L85.7403 87.9993L81.0293 87.9993Z"   fill="#00ADB5" >
</path>
<path d="M228.955 74.7999L237.906 72.1599L237.906 74.7999L228.955 77.4399L228.955 74.7999Z"   fill="#222831" >
</path>
<path d="M228.955 82.7206L238 85.3606L238 82.7206L228.955 80.0806L228.955 82.7206Z"   fill="#222831" >
</path>
<rect x="184.67138671875" y="30.7998046875" width="15.075225830078125" height="11.44000244140625"   fill="#00ADB5" >
</rect>
<rect x="145.09912109375" y="0" width="31.092620849609375" height="19.3599853515625"   fill="#00ADB5" >
</rect>
</svg>
