<svg xmlns="http://www.w3.org/2000/svg" xmlns:xlink="http://www.w3.org/1999/xlink" width="24" height="24" viewBox="0 0 24 24" fill="none">
<path   fill-rule="evenodd"  fill="#A6A6A6"  d="M4.01 6C3.45308 6 3 6.448 3 7L3 21C3 21.2664 3.111 21.5224 3.3 21.71C3.489 21.8978 3.74378 22 4.01 22L15.99 22C16.5471 22 17 21.552 17 21L17 18L20 18C20.5524 18 21 17.5522 21 17L21 3C21 2.4478 20.5524 2 20 2L8 2C7.44776 2 7 2.4478 7 3L7 6L4.01 6ZM17 16L17 6L9 6L9 4L19 4L19 16L17 16ZM5 20L15 20L15 8L5 8L5 20Z">
</path>
</svg>
