<svg xmlns="http://www.w3.org/2000/svg" xmlns:xlink="http://www.w3.org/1999/xlink" width="50" height="50" viewBox="0 0 50 50" fill="none">
<path d="M17.4888 27.0813C17.4628 27.1145 17.4367 27.1493 17.4251 27.1912L15.4181 34.5496C15.3008 34.978 15.421 35.4396 15.7379 35.7651C15.9753 35.9967 16.2878 36.124 16.6206 36.124C16.7306 36.124 16.8406 36.111 16.9491 36.082L24.2553 34.0894C24.2669 34.0894 24.2727 34.0995 24.2813 34.0995C24.3652 34.0995 24.4478 34.0692 24.5101 34.0054L44.0469 14.4715C44.6271 13.8906 44.9455 13.099 44.9455 12.238C44.9455 11.2619 44.5316 10.2866 43.8066 9.56379L41.9616 7.71589C41.2381 6.99089 40.2613 6.57629 39.2859 6.57629C38.425 6.57629 37.6334 6.8947 37.0517 7.47419L17.5177 27.0133C17.4975 27.0321 17.5033 27.0596 17.4888 27.0813ZM42.1352 12.5585L40.1947 14.4976L37.0487 11.3018L38.9619 9.3887C39.2643 9.08489 39.8502 9.12903 40.1976 9.47771L42.0439 11.3257C42.2365 11.5181 42.3464 11.7742 42.3464 12.0274C42.3451 12.2351 42.2712 12.4233 42.1352 12.5585ZM20.9632 27.3881L35.0605 13.29L38.2079 16.4881L24.1367 30.5586L20.9632 27.3881ZM18.3946 33.104L19.4134 29.3648L22.131 32.0824L18.3946 33.104Z"   fill="#FFFFFF" >
</path>
<path d="M43.3723 20.2996C42.6328 20.2996 42.0265 20.9008 42.0237 21.6504L42.0237 39.8624C42.0237 40.8175 41.248 41.5932 40.2915 41.5932L9.48345 41.5932C8.52837 41.5932 7.7498 40.8176 7.7498 39.8624L7.7498 10.1368C7.7498 9.18096 8.52837 8.40464 9.48345 8.40464L29.3256 8.40464C30.0693 8.40464 30.6729 7.80054 30.6729 7.05669C30.6729 6.31436 30.0693 5.70947 29.3256 5.70947L9.27798 5.70947C6.94966 5.70947 5.05469 7.60298 5.05469 9.93276L5.05469 40.068C5.05469 42.3977 6.94966 44.2905 9.27798 44.2905L40.4955 44.2905C42.8253 44.2905 44.7196 42.3977 44.7196 40.068L44.7196 21.6417C44.7165 20.9008 44.1118 20.2996 43.3723 20.2996Z"   fill="#FFFFFF" >
</path>
</svg>
